<?xml version="1.0" encoding="UTF-8"?>
<!DOCTYPE svg PUBLIC "-//W3C//DTD SVG 1.1//EN" "http://www.w3.org/Graphics/SVG/1.1/DTD/svg11.dtd">
<!-- Creator: CorelDRAW 2021 (64 Bit) -->
<svg xmlns="http://www.w3.org/2000/svg" xml:space="preserve" width="50mm" height="50mm" version="1.1" style="shape-rendering:geometricPrecision; text-rendering:geometricPrecision; image-rendering:optimizeQuality; fill-rule:evenodd; clip-rule:evenodd"
viewBox="0 0 5000 5000"
 xmlns:xlink="http://www.w3.org/1999/xlink"
 xmlns:xodm="http://www.corel.com/coreldraw/odm/2003">
 <defs>
  <style type="text/css">
   <![CDATA[
    .str1 {stroke:#373435;stroke-width:20;stroke-miterlimit:22.9256}
    .str0 {stroke:#373435;stroke-width:7.62;stroke-miterlimit:22.9256}
    .fil3 {fill:none}
    .fil4 {fill:#FEFEFE}
    .fil5 {fill:#6B809B}
    .fil2 {fill:black}
    .fil0 {fill:white}
    .fil1 {fill:url(#id41)}
   ]]>
  </style>
    <clipPath id="id0">
     <path d="M2269.08 777.84c-931.83,0 -1687.23,755.4 -1687.23,1687.24 0,931.83 755.4,1687.23 1687.23,1687.23 931.84,0 1687.24,-755.4 1687.24,-1687.23 0,-931.84 -755.4,-1687.24 -1687.24,-1687.24z"/>
    </clipPath>
     <clipPath id="id1">
      <path d="M2269.08 777.84c-931.83,0 -1687.23,755.4 -1687.23,1687.24 0,487.08 206.48,925.87 536.59,1233.85l1254.06 0 0 -2917.84c-34.22,-2.07 -68.68,-3.25 -103.42,-3.25z"/>
     </clipPath>
     <clipPath id="id2">
      <path d="M2269.08 777.84c-931.83,0 -1687.23,755.4 -1687.23,1687.24 0,931.83 755.4,1687.23 1687.23,1687.23 931.84,0 1687.24,-755.4 1687.24,-1687.23 0,-931.84 -755.4,-1687.24 -1687.24,-1687.24z"/>
     </clipPath>
    <clipPath id="id3">
     <path d="M4200.47 2732.61c-95.11,965.62 -955.01,1671.32 -1920.64,1576.21 -965.62,-95.11 -1671.32,-955.01 -1576.21,-1920.64 95.11,-965.62 955.01,-1671.32 1920.64,-1576.21 965.62,95.11 1671.32,955.01 1576.21,1920.64z"/>
    </clipPath>
     <clipPath id="id4">
      <path d="M4200.47 2732.61c-95.11,965.62 -955.01,1671.32 -1920.64,1576.21 -539.53,-53.14 -997.85,-345.1 -1280.74,-760.8l0 -1220.72 3194.64 0c17.51,131.68 20.32,267.4 6.74,405.31z"/>
     </clipPath>
     <clipPath id="id5">
      <path d="M999.09 2327.3l0 1220.72c282.89,415.7 741.21,707.66 1280.74,760.8 965.63,95.11 1825.53,-610.59 1920.64,-1576.21 13.58,-137.91 10.77,-273.63 -6.74,-405.31l-3194.64 0z"/>
     </clipPath>
     <clipPath id="id6">
      <path d="M4200.47 2732.61c-95.11,965.62 -955.01,1671.32 -1920.64,1576.21 -539.53,-53.14 -997.85,-345.1 -1280.74,-760.8l0 -1220.72 3194.64 0c17.51,131.68 20.32,267.4 6.74,405.31z"/>
     </clipPath>
     <clipPath id="id7">
      <path d="M4200.47 2732.61c-95.11,965.62 -955.01,1671.32 -1920.64,1576.21 -965.62,-95.11 -1671.32,-955.01 -1576.21,-1920.64 95.11,-965.62 955.01,-1671.32 1920.64,-1576.21 965.62,95.11 1671.32,955.01 1576.21,1920.64z"/>
     </clipPath>
      <mask id="id8">
  <linearGradient id="id9" gradientUnits="userSpaceOnUse" x1="4604.45" y1="2496.84" x2="3251.76" y2="2134.74">
   <stop offset="0" style="stop-opacity:1; stop-color:white"/>
   <stop offset="1" style="stop-opacity:0; stop-color:white"/>
  </linearGradient>
       <rect style="fill:url(#id9)" x="4039.44" y="782.52" width="436.06" height="1098.87"/>
      </mask>
      <mask id="id10">
  <linearGradient id="id11" gradientUnits="userSpaceOnUse" x1="4604.45" y1="2496.84" x2="3251.76" y2="2134.74">
   <stop offset="0" style="stop-opacity:1; stop-color:white"/>
   <stop offset="1" style="stop-opacity:0; stop-color:white"/>
  </linearGradient>
       <rect style="fill:url(#id11)" x="4208.93" y="1242.59" width="265.4" height="854.02"/>
      </mask>
      <mask id="id12">
  <linearGradient id="id13" gradientUnits="userSpaceOnUse" x1="4604.45" y1="2496.84" x2="3251.76" y2="2134.74">
   <stop offset="0" style="stop-opacity:1; stop-color:white"/>
   <stop offset="1" style="stop-opacity:0; stop-color:white"/>
  </linearGradient>
       <rect style="fill:url(#id13)" x="4016.16" y="2201.23" width="189.85" height="657.23"/>
      </mask>
      <mask id="id14">
  <linearGradient id="id15" gradientUnits="userSpaceOnUse" x1="4604.45" y1="2496.84" x2="3251.76" y2="2134.74">
   <stop offset="0" style="stop-opacity:1; stop-color:white"/>
   <stop offset="1" style="stop-opacity:0; stop-color:white"/>
  </linearGradient>
       <rect style="fill:url(#id15)" x="3799.72" y="2441.25" width="145.4" height="448.68"/>
      </mask>
      <mask id="id16">
  <linearGradient id="id17" gradientUnits="userSpaceOnUse" x1="4574.35" y1="2489.77" x2="3221.66" y2="2127.67">
   <stop offset="0" style="stop-opacity:1; stop-color:white"/>
   <stop offset="1" style="stop-opacity:0; stop-color:white"/>
  </linearGradient>
       <rect style="fill:url(#id17)" x="3475.05" y="2517.64" width="178.15" height="324.74"/>
      </mask>
      <mask id="id18">
  <linearGradient id="id19" gradientUnits="userSpaceOnUse" x1="4604.45" y1="2496.84" x2="3251.76" y2="2134.74">
   <stop offset="0" style="stop-opacity:1; stop-color:white"/>
   <stop offset="1" style="stop-opacity:0; stop-color:white"/>
  </linearGradient>
       <rect style="fill:url(#id19)" x="4268.01" y="1917.4" width="161.55" height="744.51"/>
      </mask>
      <mask id="id20">
  <linearGradient id="id21" gradientUnits="userSpaceOnUse" x1="4604.45" y1="2496.84" x2="3251.76" y2="2134.74">
   <stop offset="0" style="stop-opacity:1; stop-color:white"/>
   <stop offset="1" style="stop-opacity:0; stop-color:white"/>
  </linearGradient>
       <rect style="fill:url(#id21)" x="4184.55" y="1739.55" width="155.44" height="641.66"/>
      </mask>
      <mask id="id22">
  <linearGradient id="id23" gradientUnits="userSpaceOnUse" x1="2449.58" y1="3553.48" x2="5060.69" y2="338.34">
   <stop offset="0" style="stop-opacity:1; stop-color:white"/>
   <stop offset="0.341176" style="stop-opacity:0.501961; stop-color:white"/>
   <stop offset="1" style="stop-opacity:0; stop-color:white"/>
  </linearGradient>
       <rect style="fill:url(#id23)" x="3062.72" y="957.53" width="1665.95" height="1531.9"/>
      </mask>
    <mask id="id24">
  <linearGradient id="id25" gradientUnits="userSpaceOnUse" x1="1364.8" y1="820.07" x2="2138.54" y2="1970.78">
   <stop offset="0" style="stop-opacity:1; stop-color:white"/>
   <stop offset="1" style="stop-opacity:0; stop-color:white"/>
  </linearGradient>
     <rect style="fill:url(#id25)" x="1994.37" y="668.73" width="1096.03" height="173.42"/>
    </mask>
    <mask id="id26">
  <linearGradient id="id27" gradientUnits="userSpaceOnUse" x1="1387.27" y1="839.03" x2="2163.85" y2="1935.22">
   <stop offset="0" style="stop-opacity:1; stop-color:white"/>
   <stop offset="1" style="stop-opacity:0; stop-color:white"/>
  </linearGradient>
     <rect style="fill:url(#id27)" x="1823.78" y="726.51" width="777.23" height="117.84"/>
    </mask>
    <mask id="id28">
  <linearGradient id="id29" gradientUnits="userSpaceOnUse" x1="1288.45" y1="791.6" x2="2024.85" y2="1982.65">
   <stop offset="0" style="stop-opacity:1; stop-color:white"/>
   <stop offset="1" style="stop-opacity:0; stop-color:white"/>
  </linearGradient>
     <rect style="fill:url(#id29)" x="1101.27" y="1150.55" width="606.41" height="282.7"/>
    </mask>
    <mask id="id30">
  <linearGradient id="id31" gradientUnits="userSpaceOnUse" x1="1289.21" y1="781.8" x2="1938.09" y2="1965.98">
   <stop offset="0" style="stop-opacity:1; stop-color:white"/>
   <stop offset="0.301961" style="stop-opacity:0.501961; stop-color:white"/>
   <stop offset="1" style="stop-opacity:0; stop-color:white"/>
  </linearGradient>
     <rect style="fill:url(#id31)" x="1111.5" y="1420.28" width="426.67" height="248.69"/>
    </mask>
    <mask id="id32">
  <linearGradient id="id33" gradientUnits="userSpaceOnUse" x1="1288.45" y1="791.6" x2="2024.85" y2="1982.65">
   <stop offset="0" style="stop-opacity:1; stop-color:white"/>
   <stop offset="1" style="stop-opacity:0; stop-color:white"/>
  </linearGradient>
     <rect style="fill:url(#id33)" x="1223.45" y="1687.51" width="347.35" height="235.96"/>
    </mask>
    <mask id="id34">
  <linearGradient id="id35" gradientUnits="userSpaceOnUse" x1="1272.13" y1="799" x2="2041.17" y2="2005.8">
   <stop offset="0" style="stop-opacity:1; stop-color:white"/>
   <stop offset="1" style="stop-opacity:0; stop-color:white"/>
  </linearGradient>
     <rect style="fill:url(#id35)" x="1215.1" y="879.21" width="707.75" height="257.17"/>
    </mask>
    <mask id="id36">
  <linearGradient id="id37" gradientUnits="userSpaceOnUse" x1="1288.45" y1="791.6" x2="2024.85" y2="1982.65">
   <stop offset="0" style="stop-opacity:1; stop-color:white"/>
   <stop offset="1" style="stop-opacity:0; stop-color:white"/>
  </linearGradient>
     <rect style="fill:url(#id37)" x="1492.79" y="880.51" width="620.84" height="197.5"/>
    </mask>
    <mask id="id38">
  <linearGradient id="id39" gradientUnits="userSpaceOnUse" x1="4229.48" y1="-47.68" x2="1087.55" y2="2651.08">
   <stop offset="0" style="stop-opacity:1; stop-color:white"/>
   <stop offset="0.341176" style="stop-opacity:0.501961; stop-color:white"/>
   <stop offset="1" style="stop-opacity:0; stop-color:white"/>
  </linearGradient>
     <rect style="fill:url(#id39)" x="1609.16" y="851.53" width="1840.69" height="1312.63"/>
    </mask>
    <clipPath id="id40">
     <rect x="1280.24" y="4203.95" width="2455.34" height="410.9"/>
    </clipPath>
  <radialGradient id="id41" gradientUnits="userSpaceOnUse" gradientTransform="matrix(1.02816 0.0214092 -0.0213729 1.02814 -16 -122)" cx="2448.72" cy="2485.65" r="1724.29" fx="2448.72" fy="2485.65">
   <stop offset="0" style="stop-opacity:1; stop-color:#FEFEFE"/>
   <stop offset="0.768627" style="stop-opacity:1; stop-color:#131336"/>
   <stop offset="1" style="stop-opacity:1; stop-color:blue"/>
  </radialGradient>
 </defs>
 <g id="Camada_x0020_1">
  <metadata id="CorelCorpID_0Corel-Layer"/>
  <g id="_1997493597376">
   <polygon class="fil0" points="304.84,385.15 4695.16,385.15 4695.16,4614.85 304.84,4614.85 "/>
   <circle class="fil1" cx="2448.72" cy="2485.65" r="1683.42"/>
   <path class="fil2 str0" d="M2448.72 666.63c422.92,0 812.11,144.35 1121.04,386.44l-2536.84 2574.55c-252.14,-312.2 -403.22,-709.41 -403.22,-1141.97 0,-1004.62 814.4,-1819.02 1819.02,-1819.02zm1421.73 684.42c248.57,311.07 397.28,705.44 397.28,1134.6 0,1004.61 -814.4,1819.01 -1819.01,1819.01 -419.52,0 -805.82,-142.07 -1113.52,-380.67l2535.25 -2572.94z"/>
   <g>
   </g>
   <g style="clip-path:url(#id0)">
    <g id="_1997493638320">
    </g>
    <g style="clip-path:url(#id1)">
     <image x="560.88" y="630.44" width="1811.62" height="3068.49" xlink:href="Icone_Images\Icone_ImgID1.png"/>
    </g>
    <g style="clip-path:url(#id2)">
    </g>
   </g>
   <path class="fil3" d="M2269.08 777.84c-931.83,0 -1687.23,755.4 -1687.23,1687.24 0,931.83 755.4,1687.23 1687.23,1687.23 931.84,0 1687.24,-755.4 1687.24,-1687.23 0,-931.84 -755.4,-1687.24 -1687.24,-1687.24z"/>
   <g>
   </g>
   <g style="clip-path:url(#id3)">
    <g>
    </g>
    <g style="clip-path:url(#id4)">
    </g>
    <g style="clip-path:url(#id5)">
     <image x="999.09" y="2327.29" width="3364.68" height="2190.52" xlink:href="Icone_Images\Icone_ImgID2.png"/>
    </g>
    <g style="clip-path:url(#id6)">
    </g>
    <g style="clip-path:url(#id7)">
     <path class="fil4 str1" style="mask:url(#id8)" d="M4168.21 1070.82c-32.95,-98.88 -73.02,-192.06 -118.77,-278.3 76.28,80.39 146.85,175.26 208.64,282.01 52.63,100.68 96.54,207.79 130.48,320.61 47.67,158.49 72.69,318.39 76.94,476.25 -5.08,-25.01 -10.7,-50.11 -16.89,-75.28 -11.85,-85.39 -30.41,-170.95 -56.02,-256.07 -51.62,-171.62 -128.13,-328.95 -224.38,-469.22z"/>
     <path class="fil4 str1" style="mask:url(#id10)" d="M4218.93 1252.59c83.69,131.18 153.85,282.84 203.96,449.42 9.46,31.44 18.02,62.82 25.72,94.1 9.48,68.32 14.66,136.52 15.73,204.29 -1.29,28.84 -3.27,57.59 -5.92,86.21 -10.45,-48.27 -22.96,-96.85 -37.61,-145.56 -22.64,-75.26 -49.37,-147.47 -79.59,-216.12 -12.06,-27.39 -24.67,-54.21 -37.8,-80.42 -13.14,-74.41 -31.22,-148.66 -54.43,-222.33 -5.84,-45.47 -13.54,-91.45 -23.16,-137.75 -2.2,-10.59 -4.5,-21.21 -6.9,-31.84z"/>
     <path class="fil5 str1" d="M4278.02 2371.2c35.84,-144.05 53.61,-293.16 51.85,-443.8 7.57,22.17 14.78,44.62 21.62,67.35 0.2,0.67 0.41,1.35 0.61,2.03 33.46,111.69 55.7,222.75 67.46,330.7 -25.11,108.53 -60.08,214.23 -104.2,315.76 -2.15,2.91 -4.31,5.79 -6.49,8.67 -2.16,-80.36 -10.32,-163.17 -24.79,-247.33 -1.91,-11.1 -3.93,-22.23 -6.06,-33.38z"/>
     <path class="fil5 str1" d="M4329.87 1927.4c1.76,150.64 -16.01,299.75 -51.86,443.81 -11.97,-62.73 -27.46,-126.11 -46.59,-189.69 -11.3,-37.55 -23.61,-74.35 -36.87,-110.33 33.89,-97.36 55.68,-205.86 64.24,-321.64 26.22,56.82 50.03,116.21 71.08,177.85z"/>
     <path class="fil4 str1" style="mask:url(#id12)" d="M4133.26 2211.23c37.86,139.5 58.31,277.46 62.75,408.98 -24.17,58.42 -51.48,115.54 -81.8,171.08 -7.37,13.49 -14.92,26.89 -22.64,40.2 -1.03,0.48 -2.05,0.95 -3.08,1.42 -12.39,5.67 -25.01,10.85 -37.88,15.55 15.74,-151.16 8.47,-316.1 -24.45,-485.76 40.61,-43.89 76.42,-94.76 107.1,-151.47z"/>
     <path class="fil4 str1" style="mask:url(#id14)" d="M3923.79 2451.25c17.39,150.31 14.47,294.78 -6.85,426.73 -34.41,2.95 -69.12,2.52 -103.94,-1.11 12.79,-115.43 12.09,-239.05 -3.28,-366.79 40.44,-14.95 78.51,-34.71 114.07,-58.83z"/>
     <path class="fil4 str1" style="mask:url(#id16)" d="M3641.53 2533.61c4.69,104.25 -0.62,204.63 -15.24,298.77 -47.62,-17.66 -94.87,-40.9 -141.24,-69.27 12,-74.88 18.11,-153.77 17.93,-235.47 46.4,7.66 92.73,9.78 138.55,5.97z"/>
     <path class="fil5 str1" d="M4278.01 2371.21c35.85,-144.06 53.62,-293.17 51.86,-443.81 7.57,22.17 14.78,44.62 21.62,67.35 0.2,0.67 0.41,1.35 0.61,2.03 33.46,111.69 55.7,222.75 67.46,330.7 -25.11,108.53 -60.08,214.23 -104.2,315.76 -2.15,2.91 -4.32,5.8 -6.49,8.67 -2.16,-80.36 -10.32,-163.17 -24.79,-247.33 -1.91,-11.1 -3.93,-22.23 -6.07,-33.37z"/>
     <path class="fil4" style="mask:url(#id18)" d="M4351.49 1994.75c0.2,0.67 0.41,1.35 0.61,2.03 33.46,111.69 55.7,222.75 67.46,330.7 -25.11,108.53 -60.08,214.23 -104.2,315.76 -2.15,2.91 -4.32,5.8 -6.49,8.67 -2.16,-80.36 -10.32,-163.17 -24.79,-247.33 -1.91,-11.1 -3.93,-22.23 -6.07,-33.37 35.85,-144.06 53.62,-293.17 51.86,-443.81 7.57,22.17 14.78,44.62 21.62,67.35z"/>
     <path class="fil5" d="M4329.87 1927.4c1.76,150.64 -16.01,299.75 -51.86,443.81 -11.97,-62.73 -27.46,-126.11 -46.59,-189.69 -11.3,-37.55 -23.61,-74.35 -36.87,-110.33 33.89,-97.36 55.68,-205.86 64.24,-321.64 26.22,56.82 50.03,116.21 71.08,177.85z"/>
     <path class="fil4" style="mask:url(#id20)" d="M4258.79 1749.55c26.22,56.82 50.03,116.21 71.08,177.85 1.76,150.64 -16.01,299.75 -51.86,443.81 -11.97,-62.73 -27.46,-126.11 -46.59,-189.69 -11.3,-37.55 -23.61,-74.35 -36.87,-110.33 33.89,-97.36 55.68,-205.86 64.24,-321.64z"/>
     <path class="fil0" style="mask:url(#id22)" d="M4464.39 2063.51c-30.28,-1.77 -60.21,-4.56 -89.69,-7.82 36.08,-29.1 70.01,-59.02 100.64,-89.28 31.26,2.14 62.62,3.85 95.01,4.3 -31.81,31.69 -67.73,62.64 -105.96,92.8zm230.77 -738.76c-34.62,10.16 -67.19,16.72 -98.75,21.89 -10.74,-25.45 -21.15,-50.04 -33.8,-74.08 31.74,-6.15 64.65,-13.84 99.78,-25.18 12.47,25.02 22.57,50.86 32.77,77.37zm-145.47 -74.71c-23.56,-35.37 -48.72,-68.7 -76.8,-100.16 32.83,-8.09 66.84,-17.74 103.49,-31.63 26.79,33.31 51.52,68.2 74.15,105.48 -35.59,11.82 -68.6,19.94 -100.84,26.31zm-95.95 -118.19c-31.74,-28.78 -65.63,-55.43 -103.25,-79.79 33.27,-9.65 67.81,-21.28 105.3,-37.59 37.15,25.78 70.62,54.11 102.15,84.69 -36.77,14.31 -70.88,24.24 -104.2,32.69zm-125.61 -93.61c-20.1,-10.34 -39.24,-20.31 -58.33,-30.02 32.93,-10.53 67.14,-23.04 104.56,-40.68 19.23,10.48 38.83,21.05 59.25,32.13 -37.58,16.74 -72.08,28.62 -105.48,38.57zm240.13 312.43c-23.16,2.71 -46.03,5.1 -68.74,7.2 -22.56,2.08 -44.57,3.09 -67.06,4.48 -11.17,-23.78 -22.01,-46.81 -35.07,-69.03 22.37,-2.16 44.94,-4.07 67.4,-6.69 23.15,-2.69 46.04,-5.91 69.26,-9.31 12.95,23.72 23.33,48.18 34.21,73.35zm-185.27 -78.11c-24.85,-32.59 -50.35,-63.72 -80.94,-92.16 23.36,-3.56 46.59,-6.88 70.04,-10.93 23.46,-4.04 47.4,-8.45 71.3,-13.05 28.53,30.99 53.77,63.77 77.46,98.84 -23.37,3.56 -46.76,6.99 -69.86,9.96 -22.77,2.92 -45.35,4.84 -68,7.34zm-100.38 -108.8c-32.2,-26.28 -66.88,-50.37 -104.95,-72.23 23.67,-4.83 47.4,-9.4 70.82,-14.57 23.97,-5.29 47.85,-10.93 72.41,-16.86 37.36,23.87 71.53,50.07 103.57,78.53 -24.05,4.75 -48.09,9.57 -71.69,13.78 -23.27,4.15 -46.82,7.67 -70.16,11.35zm123.57 199.98c-21.98,1.3 -43.92,2.7 -65.96,4.68 -22.35,2.03 -44.98,4.79 -68.72,9.22 -11.96,-22.15 -23.24,-43.62 -36.41,-64.49 23.83,-4.98 46.68,-8.46 69.31,-11.06 21.93,-2.51 44.28,-4.66 66.33,-6.49 13.18,21.93 23.98,44.69 35.45,68.14zm-187.18 -69.71c-26.03,-30.08 -51.64,-58.89 -84.32,-84.83 24.82,-6.5 48.37,-11.1 71.49,-14.95 22.78,-3.8 45.68,-6.92 68.22,-10.06 31.08,28.1 56.63,58.53 81.46,90.99 -22.19,2.14 -44.54,4.29 -66.95,7.15 -22.58,2.87 -45.6,6.37 -69.9,11.7zm20.94 92.82c-28.44,5.41 -53.28,4.8 -76.1,1.4 -12.29,-21.01 -23.93,-41.48 -37.41,-61.07 23.07,2.81 47.82,2.9 76.77,-3.68 13.27,20.43 24.84,41.45 36.74,63.35zm-130.64 -77.53c-26.82,-28.47 -52.82,-55.47 -86.96,-79.51 23.59,1.63 48.99,0.4 79.21,-8.16 33.11,25.31 58.98,53.54 85.28,83.17 -29.28,6.79 -54.16,6.99 -77.53,4.5zm-107.72 -93.49c-32.21,-22.38 -67.99,-42.51 -106.6,-60.38 23.57,0.57 49.28,-1.93 79.75,-12.15 38.66,19.07 74.1,40.33 106.32,63.79 -30.18,8.83 -55.72,10.35 -79.47,8.74zm7.13 -87.27c25.28,-7.94 48.68,-13.31 71.99,-18.13 22.96,-4.76 46.01,-9.14 68.88,-13.41 38.16,21.3 72.95,44.96 105.1,70.99 -22.84,3.46 -45.55,6.69 -68.48,10.65 -23.27,4.02 -46.63,8.7 -71.74,15.53 -32.02,-24.3 -67.38,-46.11 -105.75,-65.63zm-136.33 16.74c-17.4,-8.4 -34.32,-16.09 -51.04,-23.68 22.98,0.28 48.25,-2.68 78.38,-13.77 17.13,7.91 34.69,16.15 52.65,24.59 -30.74,10.67 -56.27,13.27 -79.99,12.86zm61.3 -53.28c24.68,-8.22 47.93,-14.44 70.81,-19.66 22.53,-5.14 45,-9.76 67.75,-14.68 17.81,8.6 36.08,17.78 55.09,27.1 -23,4.57 -45.85,9.05 -68.96,13.97 -23.29,4.94 -46.81,10.61 -72.07,18.68 -17.85,-8.86 -35.61,-17.2 -52.62,-25.41zm166 -40.38c23.36,-5.57 46.68,-10.48 69.97,-16.29 23.5,-5.87 47.28,-12.06 70.7,-18.31 19.02,9.33 37.98,19.33 57.88,29.56 -24.19,5.99 -47.87,11.69 -72.13,17.36 -23.72,5.55 -47.27,10.16 -70.74,15.08 -19.07,-9.58 -37.34,-18.77 -55.68,-27.4zm-682.66 1427.8c-20.35,-9.75 -41.04,-19.31 -61.87,-28.71 39.4,-9.68 79.83,-19.68 121.86,-29.85 20.4,8 41.02,16.22 61.3,24.52 -41.77,11.58 -82.12,23.05 -121.29,34.04zm101.62 -68.91c69.33,-18.87 141.28,-39.28 215.08,-61.36 20.95,6.01 41.74,12.19 62.82,17.92 -74.57,23.84 -147.16,45.7 -216.69,66.49 -20.35,-7.74 -40.7,-15.48 -61.21,-23.05zm261 -75.98c77.21,-26.2 156.02,-54.57 235.25,-85.58 23.83,4.96 47.8,9.76 72.01,13.84 -82.86,31.93 -164.17,61.42 -243.49,88.95 -21.2,-5.44 -42.65,-11.23 -63.77,-17.21zm282.74 -105.45c38.86,-16.71 75.54,-34.49 113.24,-52.61 26.26,4.52 52.79,8.46 79.72,11.64 -39.77,18.62 -78.54,36.79 -119.45,54.13 -24.89,-3.82 -49.16,-8.3 -73.51,-13.16zm-725.94 213.06c-15.05,-7.35 -30.44,-15.17 -45.1,-23.82 -14.62,-8.61 -28.27,-18.53 -42.17,-28.5 39.44,-7.55 80.31,-15.07 122.92,-23.05 13.71,8.93 27.38,17.91 41.82,25.61 14.33,7.64 29.33,14.44 44.58,20.96 -42.07,9.89 -82.57,19.5 -122.05,28.8zm78.4 -83.51c68.61,-15.92 139.58,-33.73 212.6,-53.12 13.98,7.41 27.79,14.86 42.45,21.06 14.66,6.21 29.88,11.53 45.28,16.8 -73.88,21.7 -145.72,41.69 -214.6,60.07 -15.24,-6.38 -30.19,-12.74 -44.43,-20.04 -14.21,-7.3 -27.81,-16.07 -41.3,-24.77zm255.99 -66.75c74.3,-24.33 148.88,-51.13 222.41,-80.7 16.17,6.49 32.34,13.23 48.86,18.57 17.02,5.51 34.29,9.92 51.52,14.33 -78.2,30.8 -156.33,58.92 -233.24,84.8 -15.52,-4.99 -31.08,-10.24 -46.11,-16.38 -14.79,-6.06 -29.14,-13.4 -43.44,-20.62zm-438.81 86.94c-14.65,-8.1 -29.57,-15.75 -45.05,-22.48 -15.27,-6.65 -31.21,-12.9 -46.72,-19.76 39.86,-5.2 81.09,-10.78 124.09,-16.55 15.49,5.79 31.26,11.13 46.38,16.87 15.3,5.81 29.92,12.72 44.25,20.07 -42.53,7.42 -83.42,14.82 -122.95,21.85zm76.02 -64.69c68.58,-13.08 138.35,-28.52 210.73,-45.52 15.71,4.02 31.51,8.19 46.9,12.74 15.3,4.53 30.12,9.86 44.74,15.82 -73.1,19.01 -143.61,36.33 -212.61,52.05 -14.26,-6.96 -28.71,-13.36 -43.87,-18.93 -15.19,-5.58 -30.64,-10.71 -45.89,-16.16zm-186.04 13.39c-17.31,-9.9 -33.81,-21.29 -49.28,-33.94 39.95,-3.73 81.43,-7.88 124.89,-12.12 15.15,11.9 31.29,22.28 48.39,31.01 -43.09,5.24 -84.24,10.27 -124,15.05zm119.79 -50.3c68.18,-11.26 137.37,-24.99 209.15,-40.27 15.25,10.41 31.33,19.46 48.88,26.63 -72.31,16.44 -141.85,31.18 -210.17,43.68 -17.06,-8.47 -32.95,-18.49 -47.86,-30.04zm248.99 -52.58c69.07,-21.36 136.91,-45.47 200.88,-73.03 17.51,10 35.86,18.63 55.73,24.71 -66.61,27.91 -136.5,52.65 -206.9,74.66 -17.84,-6.85 -34.27,-15.83 -49.71,-26.34zm278.89 -44.96c18.03,2.91 35.74,6.26 53.29,10.24 17.07,3.86 33.91,8.77 50.55,13.96 -72.48,29.37 -146.39,55.91 -220.06,79.73 -14.75,-5.67 -30.07,-11.03 -45.77,-15.5 -15.69,-4.48 -31.66,-8.38 -47.54,-12.35 71.03,-22.4 141.74,-47.7 209.53,-76.08zm-38.31 -45.06c30.12,-15.13 57.58,-30.98 85.87,-47.25 19.45,9.78 40.08,18 62.03,23.57 -30.06,16.46 -59.27,32.63 -90.81,47.87 -20.37,-5.85 -39.23,-14.26 -57.09,-24.19zm172.5 -21.41c19.96,2.56 39.34,5.38 58.67,8.99 18.97,3.55 37.77,8.22 56.14,12.95 -33.53,17.22 -66.21,34.15 -101.23,50.16 -16.79,-5.02 -34.34,-9.75 -51.92,-13.58 -17.74,-3.87 -35.75,-7.1 -54.3,-9.79 32.17,-15.76 62.08,-32.05 92.64,-48.73zm136.8 28.72c18.04,6 36,12.18 54.54,17.13 18.63,4.97 37.76,9.15 57.08,13.17 -37.02,17.86 -73.35,35.58 -111.48,52.29 -17.92,-4.28 -35.66,-8.73 -52.91,-14.07 -16.97,-5.25 -33.71,-11.64 -50.03,-18.08 35.36,-16.08 68.57,-33.1 102.8,-50.44zm460.8 -205.8c36.2,-50.34 65.38,-101.57 85.91,-152.71 31.62,0.19 63.83,-0.4 97,-2.64 -20.72,53.06 -49.6,105.98 -87.21,158.46 -32.48,0.1 -64.16,-1.42 -95.7,-3.11zm96.29 -184.15c12.15,-51.5 20.27,-102.41 24.97,-152.3 30.87,-1.96 62.3,-4.83 95,-9.67 -4.01,51.65 -11.75,104.64 -23.56,158.09 -33.1,2.64 -65.04,3.72 -96.41,3.88zm25.58 -181.83c-0.32,-23.72 -1.47,-47.03 -2.75,-70.04 30.69,-3 62.11,-6.94 94.89,-13.28 1.6,23.77 2.89,47.85 3.2,72.51 -32.8,5.27 -64.34,8.56 -95.34,10.81zm-275.21 482.27c-21.72,-3.32 -43.15,-6.66 -64.43,-10.91 -21.04,-4.2 -41.6,-9.4 -62.2,-14.53 32.77,-27.43 63.42,-55.55 92.03,-83.97 21.73,4.39 43.59,8.82 65.76,12.28 22.42,3.5 45.18,6.2 68.02,8.79 -30.16,29.78 -63.58,59.6 -99.18,88.34zm-9.6 -137.85c34.07,-47.14 63.69,-94.95 84.06,-142.98 22.35,2.81 44.63,5.36 67.39,7.29 22.69,1.93 45.85,2.99 68.97,4.04 -20.28,50.56 -49.73,101.3 -85.49,151.03 -23.15,-2.25 -46.03,-4.72 -68.4,-7.91 -22.46,-3.2 -44.65,-7.23 -66.53,-11.47zm95.16 -172.39c13.83,-48.32 22.84,-96.3 28.79,-143.19 21.67,1.05 43.49,2.17 65.44,2.54 22.22,0.37 44.77,-0.05 67.25,-0.49 -4.99,49.27 -13.15,99.92 -25.77,150.83 -23.25,-0.76 -46.2,-1.7 -68.83,-3.25 -22.52,-1.56 -44.59,-4.02 -66.88,-6.44zm-237.23 279.11c-20.77,-4.03 -41.99,-7.64 -63.29,-10.57 -21.64,-2.99 -43.56,-5.29 -66.18,-6.56 29.44,-25.89 56.91,-52.63 83.54,-79.07 23.92,0.5 46.97,1.94 69.74,4.3 22.48,2.34 44.65,5.36 66.9,8.59 -28.31,28.09 -58.44,56.11 -90.71,83.31zm-21.88 -122.86c31.9,-44.2 62.29,-88.8 82.67,-133.72 24.47,-1.47 47.98,-1.44 70.86,-0.47 22.78,0.97 45.41,2.53 67.77,4.39 -20.49,47.38 -50.37,94.71 -83.99,141.36 -22.03,-3 -44.54,-5.95 -67.16,-8 -22.88,-2.07 -45.92,-3.38 -70.15,-3.56zm-135.54 104.87c-24.87,-4.77 -48.07,-12.26 -70.46,-21.24 27.09,-24.91 52.43,-50.46 78,-75.78 23.73,8.47 48.06,15.21 74.41,19.18 -26.49,26.16 -53.32,52.51 -81.95,77.84zm30.76 -122.31c30.46,-42.19 61.21,-84.71 81.6,-127.62 23.65,6.99 48.45,12.31 75.19,14.47 -20.18,44.09 -50.51,88 -81.97,131.58 -26.45,-3.55 -51.16,-10.36 -74.82,-18.43zm94.19 -153.81c16.52,-43.44 26.79,-86.41 35.17,-128.9 22.52,5.73 46.5,9.58 72.36,9.88 -7.29,43.51 -17.3,87.9 -32.7,132.47 -26.68,-1.75 -51.22,-6.71 -74.83,-13.45zm137.92 -124.66c23.99,-3.13 46.84,-4.75 69.12,-5.12 21.8,-0.36 43.87,-0.01 65.42,0.39 -6.06,46.38 -15.33,93.87 -29.25,141.66 -22.29,-1.47 -44.71,-2.94 -67.45,-3.65 -22.81,-0.71 -46.1,-0.38 -70.52,1.34 15.62,-45.41 25.49,-90.59 32.68,-134.62zm-103.12 -29.16c-0.03,-20.15 -0.37,-39.97 -0.46,-59.44 22.55,4.92 45.9,8.23 71.92,7.41 0.39,20.08 1,40.39 1.12,61.06 -25.99,0.01 -49.75,-3.62 -72.58,-9.03zm102.11 -59.19c24,-4.07 46.73,-6.3 68.73,-7.33 21.85,-1 43.77,-1.48 65.19,-1.86 0.82,21.48 1.48,43.13 1.87,65.22 -21.68,-0.1 -43.7,-0.18 -65.65,0.33 -22.26,0.52 -45.09,2.25 -68.99,5.77 -0.21,-21.05 -0.86,-41.63 -1.15,-62.13zm159.78 -8.9c21.7,0.24 43.4,0.63 65.37,0.13 22.07,-0.49 44.29,-1.7 66.98,-2.98 1.05,22.77 2.15,45.82 2.77,69.22 -22.76,0.9 -45.28,1.26 -67.3,1.16 -22.05,-0.1 -44.01,-0.76 -65.65,-1.68 -0.26,-22.39 -1.15,-44.26 -2.17,-65.85z"/>
    </g>
   </g>
   <path class="fil3" d="M4200.47 2732.61c-95.11,965.62 -955.01,1671.32 -1920.64,1576.21 -965.62,-95.11 -1671.32,-955.01 -1576.21,-1920.64 95.11,-965.62 955.01,-1671.32 1920.64,-1576.21 965.62,95.11 1671.32,955.01 1576.21,1920.64z"/>
   <path class="fil4 str1" style="mask:url(#id24)" d="M2779.69 798.58c104.18,3.07 204.95,14.6 300.71,33.57 -98.95,-49.89 -210.13,-90.14 -330.15,-118.56 -111.58,-21.4 -195.66,-41.78 -344.61,-32.6 -148.95,9.18 -122,5.79 -270.98,42.89 25.41,-2.34 32.41,-2.18 -130.29,15.11 85.18,-13.25 172.46,-20.12 261.35,-20.12 179.22,0 351.92,27.94 513.97,79.71z"/>
   <path class="fil4 str1" style="mask:url(#id26)" d="M2591.01 802.37c-149.73,-42.36 -315.17,-65.86 -489.12,-65.86 -32.83,0 -65.35,0.84 -97.52,2.48 -68.15,10.6 -105.14,50.08 -170.34,68.58 -4.87,54.26 66.19,-10.99 39.55,-0.21 49.23,-3.9 -64.72,0 0,0 64.72,0 155.44,4.8 229.89,13.96 29.7,3.66 59.01,8.01 87.9,13.03 75.04,-8.85 151.35,-12.92 228.58,-11.91 45.23,-7.51 91.48,-13.38 138.58,-17.51 10.78,-0.94 21.61,-1.8 32.48,-2.56z"/>
   <path class="fil5 str1" d="M1502.79 1068c127.63,-75.81 265.3,-135.78 410.06,-177.49 -23.41,-0.86 -46.99,-1.3 -70.73,-1.3 -0.7,0 -1.41,0 -2.11,0 -116.6,0.13 -229.36,10.82 -336.12,30.66 -96.7,55.31 -187.84,119.24 -272.36,190.74 -2.17,2.89 -4.31,5.79 -6.43,8.71 77.57,-21.08 159.22,-37.12 243.98,-47.5 11.18,-1.37 22.42,-2.64 33.71,-3.82z"/>
   <path class="fil5 str1" d="M1912.85 890.51c-144.76,41.71 -282.43,101.68 -410.06,177.5 63.52,-6.6 128.67,-10.02 195.07,-10.02 39.21,0 78,1.19 116.27,3.53 83.47,-60.5 181.1,-112.62 289.5,-154.17 -61.96,-8.74 -125.69,-14.44 -190.78,-16.84z"/>
   <path class="fil4 str1" style="mask:url(#id28)" d="M1697.68 1160.55c-144.49,3.93 -282.49,24.08 -409.72,57.71 -48.98,39.98 -95.81,82.58 -140.26,127.62 -10.8,10.94 7.47,9.61 -3.05,20.84 -0.16,1.12 -29.25,14.66 -29.4,15.78 -1.86,13.49 -3.19,27.07 -3.98,40.75 140.22,-58.62 300.26,-99.16 472.21,-116.51 30.33,-51.53 68.73,-100.48 114.2,-146.19z"/>
   <path class="fil4 str1" style="mask:url(#id30)" d="M1528.17 1430.28c-148.95,26.64 -286.45,71.05 -406.67,129.48 7.09,33.8 17.5,66.91 31.01,99.21 106.85,-45.5 225.43,-80.43 352.19,-102.51 2.66,-43.03 10.62,-85.18 23.47,-126.18z"/>
   <path class="fil4 str1" style="mask:url(#id32)" d="M1515.17 1697.51c-101.18,25.54 -195.78,59.54 -281.72,100.66 30.63,40.51 66.5,79.06 107.02,115.3 68.25,-33.07 142.04,-61.64 220.33,-85 -20.7,-42.23 -36.08,-85.99 -45.63,-130.96z"/>
   <path class="fil5 str1" d="M1502.79 1068.01c127.63,-75.82 265.3,-135.79 410.06,-177.5 -23.41,-0.86 -46.99,-1.3 -70.73,-1.3 -0.7,0 -1.41,0 -2.11,0 -116.6,0.13 -229.36,10.82 -336.12,30.66 -96.7,55.31 -187.84,119.24 -272.36,190.74 -2.17,2.89 -4.31,5.8 -6.43,8.71 77.57,-21.08 159.22,-37.12 243.98,-47.5 11.18,-1.37 22.42,-2.64 33.71,-3.81z"/>
   <path class="fil4" style="mask:url(#id34)" d="M1842.12 889.21c-0.7,0 -1.41,0 -2.11,0 -116.6,0.13 -202.95,6.13 -309.71,25.97 -88.17,56.63 -198.67,139.26 -283.19,210.76 -2.17,2.89 -19.89,-9.53 -22.01,-6.62 77.57,-21.08 159.22,-37.12 243.98,-47.5 11.18,-1.37 22.42,-2.64 33.71,-3.81 127.63,-75.82 265.3,-135.79 410.06,-177.5 -23.41,-0.86 -46.99,-1.3 -70.73,-1.3z"/>
   <path class="fil5" d="M1912.85 890.51c-144.76,41.71 -282.43,101.68 -410.06,177.5 63.52,-6.6 128.67,-10.02 195.07,-10.02 39.21,0 78,1.19 116.27,3.53 83.47,-60.5 181.1,-112.62 289.5,-154.17 -61.96,-8.74 -125.69,-14.44 -190.78,-16.84z"/>
   <path class="fil4" style="mask:url(#id36)" d="M2103.63 907.35c-61.96,-8.74 -125.69,-14.44 -190.78,-16.84 -144.76,41.71 -282.43,101.68 -410.06,177.5 63.52,-6.6 128.67,-10.02 195.07,-10.02 39.21,0 78,1.19 116.27,3.53 83.47,-60.5 181.1,-112.62 289.5,-154.17z"/>
   <path class="fil0" style="mask:url(#id38)" d="M1959.58 1070.42c31.56,9.99 63.13,20.13 94.69,30.13 -38.13,19.86 -72.25,41.75 -104.72,64.04 -32.66,-8.78 -65.31,-17.83 -97.97,-26.75 33.57,-23.65 68.78,-46.48 108,-67.42zm-339.14 650.97c22.99,12.17 56.19,12.57 88.48,13.79 5.29,27.42 12.04,54.45 19.34,80.79 -32.84,-0.13 -66.41,0.41 -92.49,-7.83 -6.21,-28.38 -11.86,-57.29 -15.33,-86.75zm117.49 119.85c17.33,40.13 36.67,78.64 60.38,115.39 -34.29,1.62 -69.5,4.32 -101.43,3.38 -20.8,-40 -38.31,-81.61 -53.27,-124.71 27,7.02 60.93,5.94 94.32,5.94zm76.98 137.14c27.92,34.59 59.11,67.29 93.96,97.82 -34.85,3.65 -70.97,8.65 -108,14.87 -33.02,-33.78 -62.58,-69.72 -88.67,-107.55 32.84,-0.14 68.23,-3.25 102.71,-5.14zm114.57 115.25c18.98,13.52 37.04,26.62 54.91,39.19 -34.48,4.59 -70.23,10.81 -109.46,21.34 -17.51,-14.18 -35.57,-28.64 -54.36,-43.64 37.76,-7.56 74.07,-12.97 108.91,-16.89zm-191.55 -356.97c23.53,1.89 47.43,3.58 70.96,5.54 23.35,1.94 46.89,4.06 70.24,6.08 6.2,26.08 13.5,51.62 20.98,76.34 -23.53,-1.35 -47.43,-2.99 -70.78,-4.32 -23.71,-1.36 -47.8,-2.43 -71.88,-3.51 -7.3,-26.22 -14.23,-52.83 -19.52,-80.13zm172.94 112.01c19.34,37.97 39.59,74.04 65.5,108.5 -24.45,-0.41 -48.71,-1.09 -73.16,-1.35 -24.62,-0.27 -49.44,-0.14 -74.43,0 -23.9,-36.35 -43.42,-74.32 -61.3,-114.17 23.9,1.08 48.16,2.03 72.06,3.24 24.07,1.21 47.62,2.57 71.33,3.78zm82.46 128.9c28.1,32.29 59.84,62.69 94.69,90.93 -24.27,0.41 -48.71,0.81 -73.34,1.76 -24.63,0.95 -49.81,2.16 -74.98,3.65 -34.85,-30.27 -66.22,-62.43 -94.32,-96.61 25.18,-0.4 50.17,-0.6 74.8,-0.54 24.62,0.06 48.71,0.54 73.15,0.81zm-86.1 -226.59c23.16,2.03 45.98,4.18 69.14,6.08 22.98,1.88 46.88,3.11 71.88,3.11 7.11,24.86 14.59,49.05 21.71,72.56 -25.18,0.67 -49.09,0.12 -72.25,-1.35 -23.35,-1.49 -46.34,-3.11 -69.5,-4.6 -7.48,-24.72 -14.78,-49.85 -20.98,-75.8zm175.31 104.45c20.62,35.8 41.23,69.99 68.78,102.41 -26.09,2.03 -50.72,2.22 -74.61,1.76 -23.89,-0.47 -47.44,-1.08 -71.34,-1.62 -26.27,-34.05 -46.52,-69.99 -65.67,-107.55 23.17,1.35 46.53,2.58 69.87,3.92 23.35,1.35 47.43,2.02 72.97,1.08zm0 -99.18c31.38,-1.48 56.01,4.06 77.17,13.25 7.85,23.91 15.33,47.02 22.81,69.44 -21.35,-8.37 -46.16,-13.24 -77.72,-11.08 -7.3,-23.23 -14.78,-47.15 -22.26,-71.61zm113.48 104.45c22.07,34.18 43.05,66.74 72.24,97.41 -22.26,-6.89 -47.8,-10.53 -80.63,-6.89 -27.92,-32.02 -48.9,-65.66 -70.24,-100.93 32.11,-2.43 57.1,2.3 78.63,10.41zm90.3 115.52c28.46,28.51 60.39,55.13 95.41,79.58 -22.62,-5.4 -48.34,-7.56 -81,-2.84 -35.21,-25.53 -66.95,-53.37 -95.23,-83.09 32.66,-3.65 58.38,-0.27 80.82,6.35zm-22.62 85.53c-26.64,3.24 -51.27,4.4 -74.8,4.86 -24.08,0.47 -47.8,0.95 -71.69,1.35 -34.85,-27.97 -66.41,-57.96 -94.69,-89.71 23.9,0.27 47.63,0.6 71.7,0.94 23.72,0.33 48.34,0 74.8,-2.29 28.27,30.13 59.65,58.63 94.68,84.85zm137.92 7.97c15.87,10.94 31.01,21.21 45.24,31.21 -22.25,-4.32 -47.43,-5.94 -79.36,-0.41 -14.96,-10.53 -30.64,-21.34 -46.88,-32.96 32.65,-5 58.38,-2.84 81,2.16zm-70.6 40.4c-25.91,3.92 -50,5.6 -73.34,6.48 -23.17,0.87 -46.34,2.03 -69.51,2.98 -16.23,-11.49 -32.84,-23.38 -50.71,-35.67 23.89,-0.68 47.61,-1.36 71.51,-2.03 23.71,-0.67 48.16,-1.89 74.8,-5.27 16.42,11.62 32.11,22.7 47.25,33.51zm-171.12 10.54c-23.9,1.08 -47.62,1.95 -71.88,3.51 -24.07,1.54 -48.71,3.38 -73.16,5.4 -17.69,-12.43 -35.76,-25.26 -54.55,-38.5 25.36,-1.62 50.37,-3.05 74.8,-4.19 24.81,-1.15 49.08,-1.76 73.52,-2.43 17.7,12.56 34.66,24.59 51.27,36.21zm822.04 -1259.13c22.98,18.37 47.43,35.13 72.61,50.94 -40.87,1.75 -82.46,3.65 -125.33,5.54 -25,-14.46 -49.44,-29.73 -72.43,-46.35 42.69,-3.37 84.47,-6.75 125.15,-10.13zm-95.23 58.64c-69.51,5 -141.02,11.35 -213.63,19.05 -25.54,-12.43 -50.53,-25.54 -74.62,-39.72 73.34,-9.46 145.95,-17.3 216,-24.32 23.17,16.07 47.26,30.8 72.25,44.99zm-258.51 24.59c-75.16,11.08 -150.87,23.91 -227.13,38.78 -27.91,-11.35 -55.28,-23.24 -81.91,-35.67 78.81,-15.81 156.71,-29.86 233.15,-42.29 24.44,13.91 49.99,26.75 75.89,39.18zm-272.01 49.45c-37.58,8.65 -72.79,18.78 -108.18,29.32 -29.37,-11.08 -58.56,-22.29 -87.57,-33.64 37.04,-11.08 73.71,-21.49 112.38,-30.81 27.37,12.16 55.1,23.78 83.37,35.13zm721.71 -68.23c19.7,10.94 39.68,21.93 59.84,32.29 20.33,10.45 40.86,20.4 61.84,30.54 -41.23,-0.27 -83.37,-0.41 -127.15,-0.81 -20.44,-9.06 -40.81,-18.28 -60.94,-27.84 -19.99,-9.49 -39.59,-19.72 -59.11,-29.72 42.88,-1.49 84.84,-2.98 125.52,-4.46zm-48.71 62.02c-69.14,2.97 -139.93,7.02 -212.17,12.56 -20.62,-8.11 -40.93,-16.36 -61.12,-24.72 -19.93,-8.25 -39.77,-17.03 -59.47,-25.81 72.61,-7.43 143.94,-13.24 213.45,-17.97 19.34,9.73 38.93,19.56 58.74,28.78 19.96,9.28 40.14,18.24 60.57,27.16zm-255.41 17.43c-72.79,9.86 -146.13,21.48 -218.01,36.07 -21.89,-7.7 -43.67,-15.49 -65.31,-23.37 -21.4,-7.79 -42.87,-16.22 -63.85,-24.46 75.35,-15 150.87,-27.43 225.31,-38.24 19.88,8.65 39.94,17.33 60.38,25.68 20.23,8.26 40.87,16.34 61.48,24.32zm450.98 -4.73c20.79,9.45 41.77,18.93 62.75,27.97 21.34,9.19 42.88,17.97 64.58,27.02 -41.77,-2.16 -84.64,-4.33 -129.16,-6.62 -21.34,-7.97 -42.76,-15.93 -63.67,-24.32 -20.85,-8.36 -41.41,-17.03 -61.84,-25.81 43.6,0.54 85.92,1.08 127.34,1.76zm-46.16 46.21c-68.96,0.81 -139.38,3.1 -211.26,6.62 -21.71,-6.62 -43.06,-13.52 -63.85,-20.81 -20.8,-7.29 -41.41,-15 -61.66,-22.7 72.06,-5.13 142.84,-8.92 211.99,-11.49 20.25,8.25 40.68,16.77 61.48,24.87 20.78,8.1 41.96,15.8 63.3,23.51zm200.5 19.18c28.27,8.38 44.87,28.65 60.75,49.32 -41.96,-3.51 -85.2,-7.16 -129.9,-10.81 -15.69,-19.86 -32.29,-38.91 -59.84,-46.34 44.34,2.7 87.21,5.26 128.99,7.83zm-114.03 34.73c-68.77,-0.81 -138.64,-0.14 -210.16,1.75 -15.87,-18.24 -32.65,-35.53 -60.02,-42.02 71.7,-2.97 141.75,-4.59 210.53,-5 27.73,7.16 43.97,25.94 59.65,45.27zm-250.48 5.94c-69.32,7.57 -138.65,17.16 -203.59,30.94 -17.88,-17.29 -36.67,-33.91 -65.31,-40.13 67.13,-14.18 137.55,-24.32 207.97,-32.42 27.73,6.21 44.7,23.51 60.93,41.61zm-298.82 -15.13c-23.17,-5.95 -45.82,-12.34 -68.05,-19.32 -22.09,-6.93 -43.97,-14.32 -65.67,-21.76 71.33,-14.59 144.3,-25.8 216.91,-35.53 20.43,7.7 41.23,15.3 62.21,22.56 21.15,7.32 42.69,14.05 64.76,20.54 -70.96,8.65 -142.11,19.19 -210.16,33.51zm54.91 54.72c-33.2,7.43 -61.84,17.02 -91.22,26.75 -19.33,-17.02 -39.4,-33.1 -69.32,-39.32 30.28,-9.86 60.39,-19.45 94.5,-27.29 28.82,6.22 47.98,22.7 66.04,39.86zm-191.92 -17.97c-24.44,-5.54 -48.35,-11.88 -71.51,-18.65 -22.99,-6.73 -45.98,-14.05 -68.6,-21.21 32.66,-10 64.95,-20 100.71,-28.24 21.89,7.3 43.94,14.55 66.22,21.49 22.41,6.97 45.24,13.24 68.96,18.91 -34.48,7.97 -64.95,17.7 -95.78,27.7zm-167.84 -48.78c-22.98,-7.56 -45.8,-15.11 -68.59,-22.83 -22.62,-7.67 -45.06,-15.67 -67.32,-23.65 34.85,-10.4 69.69,-20.4 106.91,-29.05 21.52,8.11 43.17,16.26 64.76,24.05 21.82,7.88 43.78,15.54 66.04,23.11 -35.94,8.24 -68.78,18.1 -101.8,28.37zm-491.11 107.82c-43.23,39.86 -80.63,82.15 -111.65,125.53 -32.47,-6.9 -65.49,-13.38 -98.51,-19.33 30.47,-45.8 67.5,-89.98 111.28,-131.6 32.84,8.38 65.68,16.89 98.88,25.4zm-127.15 153.22c-23.72,46.35 -42.51,93.37 -58.02,140.52 -31.37,-4.59 -63.85,-8.51 -96.87,-11.48 14.96,-49.32 33.39,-98.37 56.37,-147.01 33.21,5.41 66.04,11.35 98.52,17.97zm-65.13 168.9c-4.56,23.1 -8.58,46.21 -11.31,69.04 -31.56,-3.51 -63.67,-6.08 -97.06,-7.57 2.74,-23.78 6.94,-47.69 11.5,-71.74 33.02,2.56 65.13,6.08 96.87,10.27zm355.56 -399.94c23.9,7.29 47.98,14.76 71.88,21.89 24.07,7.18 48.53,14.32 72.79,21.48 -37.03,18.51 -69.32,39.05 -100.7,60.13 -24.81,-6.62 -49.61,-13.32 -74.25,-20 -24.61,-6.68 -49.26,-13.38 -73.71,-20.27 32.29,-22.16 65.86,-43.64 103.99,-63.23zm14.6 124.71c-42.69,37.02 -80.64,76.2 -113.3,116.6 -24.44,-5.13 -49.07,-10.56 -73.33,-15.81 -24.44,-5.28 -49.08,-10.53 -73.52,-15.8 31.37,-42.97 68.59,-84.59 111.83,-123.9 24.44,6.62 49.27,13.18 73.88,19.59 24.64,6.41 49.62,12.97 74.44,19.32zm-129.9 142.41c-26.08,43.1 -45.79,87.15 -62.75,131.46 -23.72,-3.78 -47.42,-7.85 -70.79,-11.61 -23.5,-3.79 -47.25,-7.44 -70.78,-11.22 15.51,-46.61 34.3,-92.96 58.38,-138.76 24.26,4.86 48.74,10.01 72.97,15 24.28,5 48.71,10.13 72.97,15.13zm289.34 -215.24c24.08,6.76 48.16,13.52 72.61,20 24.44,6.48 49.62,12.16 75.53,17.02 -35.76,17.3 -66.41,36.89 -96.69,56.62 -26.82,-4.19 -52.54,-9.5 -77.54,-15.54 -24.8,-5.98 -49.44,-12.3 -74.06,-18.51 31.19,-20.94 63.12,-41.35 100.15,-59.59zm22.08 113.23c-42.69,34.72 -81.19,71.07 -115.67,108.49 -26.45,-2.56 -52.01,-6.26 -76.62,-11.07 -24.45,-4.77 -48.71,-9.87 -72.97,-14.87 32.84,-39.86 70.78,-78.5 113.65,-115.25 24.63,6.08 49.23,12.32 74.07,18.11 24.96,5.82 50.72,10.8 77.54,14.59zm159.81 -72.02c31.01,6.08 52.9,21.49 74.07,37.7 -35.03,16.35 -64.4,34.99 -93.96,53.77 -21.71,-15.53 -44.51,-30.13 -76.07,-35.67 29.92,-19.45 60.38,-38.77 95.96,-55.8zm-48.89 109.99c-42.33,32.69 -81.19,66.88 -116.4,102.14 -21.71,-13.65 -44.33,-26.48 -75.34,-30.53 34.3,-36.76 72.97,-72.43 115.3,-106.47 31.74,5.27 54.54,19.59 76.44,34.86zm-134.46 124.71c-30.28,37.69 -51.99,77.15 -71.88,116.6 -20.79,-11.62 -42.69,-22.3 -72.24,-25.13 18.97,-40.81 39.95,-81.61 69.14,-121.06 30.83,3.91 53.46,16.34 74.98,29.59zm-178.23 92.82c-26.09,-0.81 -50.55,-3.22 -74.25,-6.62 -23.36,-3.35 -46.71,-7.16 -70.06,-10.68 17.51,-43.91 37.4,-87.55 64.04,-130.11 24.08,4.59 48.33,9.38 72.79,13.92 24.24,4.5 49.62,8.24 76.25,10.4 -28.82,40.13 -49.8,81.47 -68.77,123.09zm96.87 47.83c-4.56,20 -8.94,39.59 -13.32,59.04 -20.61,-10.67 -42.51,-20.26 -71.51,-22.29 4.19,-20.13 8.57,-40.53 13.13,-61.07 29.19,2.57 51.08,12.83 71.7,24.32zm-118.95 39.18c-25.9,0 -50.01,-1.75 -73.52,-4.46 -23.18,-2.68 -45.97,-5.81 -69.14,-8.78 3.65,-21.35 7.66,-42.97 12.22,-64.72 23.35,3.51 46.34,6.9 69.69,10.13 23.52,3.25 47.8,5.41 73.89,5.95 -4.75,20.81 -9.13,41.61 -13.14,61.88zm-170.57 -17.16c-23.17,-3.11 -46.51,-6.35 -69.88,-9.46 -23.33,-3.1 -46.88,-5.94 -70.41,-8.91 2.91,-22.57 6.93,-45.27 11.31,-68.24 23.53,3.52 47.27,6.91 70.6,10.54 23.54,3.66 46.88,7.3 70.42,10.81 -4.56,22.03 -8.76,43.78 -12.04,65.26z"/>
   <g style="clip-path:url(#id40)">
    <image x="1280.24" y="4203.95" width="2455.34" height="410.9" xlink:href="Icone_Images\Icone_ImgID3.png"/>
   </g>
  </g>
 </g>
</svg>
